# xmcd
#
# Track frame offsets: 
#        150
#        14869
#        26125
#        48440
#        64996
#        85832
#        109255
#        127945
#        145722
#        162054
#
# Disc length: 2291 seconds
#
# Revision: 3
# Processed by: cddbd v1.5.2PL0 Copyright (c) Steve Scherf et al.
# Submitted via: ExactAudioCopy v0.95b3
#
DISCID=8608f10a
DTITLE=Paolo Conte - Un Gelato Al Limon
DYEAR=1979
DGENRE=Jazz
TTITLE0=la donna d'inverno
TTITLE1=bartali
TTITLE2=arte
TTITLE3=angiolino
TTITLE4=Dal Loggione
TTITLE5=gelato al limon
TTITLE6=blue tangos
TTITLE7=sud america
TTITLE8=uomo camion
TTITLE9=rebus
EXTD=
EXTT0=
EXTT1=
EXTT2=
EXTT3=
EXTT4=
EXTT5=
EXTT6=
EXTT7=
EXTT8=
EXTT9=
PLAYORDER=
